<svg xmlns="http://www.w3.org/2000/svg" width="158" height="62" viewBox="0 0 158 62">
    <g fill="none" fill-rule="evenodd">
        <g fill="#FFF">
            <g>
                <path d="M8.946 37.03c5.06 0 7.68-2.621 7.68-6.638 0-4.1-3.036-6.35-7.918-6.35H7.011v12.987h1.935zM0 37.035h2.536v-13H0V19.89h8.42c8.048 0 12.816 4.013 12.816 10.45 0 6.505-4.497 10.841-13.222 10.841H0v-4.145zM151.075 0c2.84 0 5.218 2.13 5.218 4.92s-2.378 4.92-5.218 4.92c-2.838 0-5.218-2.13-5.218-4.92S148.237 0 151.075 0zm3.453 14.318L148.773 36.2c-.383 1.394-.536 2.57-.536 3.377 0 1.395.69 2.056 1.84 2.056 1.382 0 2.84-.81 4.527-5.286l3.378 1.247c-2.302 7.563-6.14 9.473-10.513 9.473-5.22 0-7.673-2.864-7.673-7.196 0-1.101.153-2.35.459-3.597l3.914-15.2h-6.062l1.842-6.755h14.58zm-101.16 34.95l-3.884-4.372c-2.535 1.352-5.569 2.139-9.01 2.139-10.927 0-17.558-7.572-17.558-16.37 0-8.652 6.783-16.368 17.559-16.368 10.927 0 17.558 7.571 17.558 16.369 0 4.7-2 9.124-5.556 12.185l3.753 4.224c1.295-.324 2.725.067 3.65 1.124l6.508 7.44c1.29 1.474 1.105 3.687-.412 4.938l-.617.511c-1.517 1.253-3.791 1.074-5.081-.4l-6.51-7.44c-1.002-1.147-1.113-2.74-.4-3.98zm.1-18.602c0-7.315-5.368-12.434-12.994-12.434-7.624 0-12.992 5.119-12.992 12.434 0 7.314 5.368 12.434 12.992 12.434 7.626 0 12.995-5.12 12.995-12.434zm6.12 1.66c0-4.526 3.818-8.854 9.212-8.854 4.98 0 8.259 3.097 8.259 5.836 0 1.827-1.286 2.939-2.905 2.939-1.494 0-2.739-1.192-2.739-2.621 0-.516.249-1.112.581-1.469-.332-.437-1.452-1.191-3.237-1.191-2.075 0-4.648 1.627-4.648 5.44 0 3.334 2.657 5.44 5.893 5.44 2.2 0 4.108-.597 6.473-1.827l-.373 3.891c-1.95 1.071-3.817 1.589-6.474 1.589-5.726 0-10.042-3.574-10.042-9.173zm22.957 6.79c-.415-.715-.623-1.628-.623-2.74v-8.934h-3.527V23.79h3.527v-3.653l4.482-1.866v5.52h5.519v3.652h-5.52v8.1c0 .556.084.914.291 1.27.332.557.996.835 1.91.835 1.161 0 2.489-.437 3.568-.913l-.374 3.732c-1.244.596-2.697 1.032-4.357 1.032-2.2 0-3.983-.714-4.896-2.382zM129.96 26.33c0 1.47-1.203 2.701-2.697 2.701-1.37 0-2.283-.755-2.656-1.55-1.287.437-2.78 1.787-3.61 3.296v6.83h3.153v3.574h-10.374v-3.574h2.698V27.442h-2.698v-3.653h7.054v3.932c1.536-2.344 3.445-4.25 5.768-4.25 2.242 0 3.362 1.31 3.362 2.86zm-36.632 6.155c0-4.765 3.735-9.013 9.67-9.013 6.017 0 9.669 4.168 9.669 9.013 0 4.765-3.735 9.013-9.67 9.013-6.016 0-9.669-4.17-9.669-9.013zm14.691 0c0-2.827-2.075-4.805-5.021-4.805-2.946 0-5.021 1.978-5.021 4.805 0 2.826 2.075 4.805 5.02 4.805 2.947 0 5.022-1.979 5.022-4.805z" transform="translate(-83 -11) translate(-3) translate(86 11)"/>
            </g>
        </g>
    </g>
</svg>
